<!DOCTYPE svg PUBLIC "-//W3C//DTD SVG 1.1//EN" "http://www.w3.org/Graphics/SVG/1.1/DTD/svg11.dtd">
<!-- Uploaded to: SVG Repo, www.svgrepo.com, Transformed by: SVG Repo Mixer Tools -->
<svg fill="#6f6b80" height="800px" width="800px" version="1.1" id="Layer_1" xmlns="http://www.w3.org/2000/svg" xmlns:xlink="http://www.w3.org/1999/xlink" viewBox="0 0 512 512" xml:space="preserve" stroke="#6f6b80">
<g id="SVGRepo_bgCarrier" stroke-width="0"/>
<g id="SVGRepo_tracerCarrier" stroke-linecap="round" stroke-linejoin="round"/>
<g id="SVGRepo_iconCarrier"> <g> <g> <path d="M431.836,73.699L361.124,2.987C359.212,1.075,356.617,0,353.912,0H87.376c-5.633,0-10.199,4.566-10.199,10.199v491.602 c0,5.633,4.566,10.199,10.199,10.199h337.249c5.633,0,10.199-4.566,10.199-10.199V80.911 C434.824,78.206,433.749,75.612,431.836,73.699z M398.644,72.414h-35.745l-0.086-35.831L398.644,72.414z M414.426,491.602H97.575 V20.398h244.801l0.149,62.24c0.013,5.624,4.575,10.175,10.199,10.175h61.702V491.602z"/> </g> </g> <g> <g> <path d="M359.607,125.941h-3.786c-5.633,0-10.199,4.566-10.199,10.199c0,5.633,4.566,10.199,10.199,10.199h3.786 c5.633,0,10.199-4.566,10.199-10.199C369.806,130.507,365.24,125.941,359.607,125.941z"/> </g> </g> <g> <g> <path d="M311.189,125.941H152.393c-5.633,0-10.199,4.566-10.199,10.199c0,5.633,4.566,10.199,10.199,10.199h158.796 c5.633,0,10.199-4.566,10.199-10.199C321.388,130.507,316.822,125.941,311.189,125.941z"/> </g> </g> <g> <g> <path d="M359.607,205.496H152.393c-5.633,0-10.199,4.566-10.199,10.199c0,5.633,4.566,10.199,10.199,10.199h207.213 c5.633,0,10.199-4.566,10.199-10.199C369.806,210.062,365.24,205.496,359.607,205.496z"/> </g> </g> <g> <g> <path d="M359.607,285.05H152.393c-5.633,0-10.199,4.566-10.199,10.199c0,5.633,4.566,10.199,10.199,10.199h207.213 c5.633,0,10.199-4.566,10.199-10.199C369.806,289.617,365.24,285.05,359.607,285.05z"/> </g> </g> <g> <g> <path d="M359.607,365.661H152.393c-5.633,0-10.199,4.566-10.199,10.199c0,5.633,4.566,10.199,10.199,10.199h207.213 c5.633,0,10.199-4.566,10.199-10.199C369.806,370.227,365.24,365.661,359.607,365.661z"/> </g> </g> </g>
</svg>